<?xml version="1.0" standalone="no"?><!DOCTYPE svg PUBLIC "-//W3C//DTD SVG 1.1//EN" "http://www.w3.org/Graphics/SVG/1.1/DTD/svg11.dtd"><svg t="1761814541985" class="icon" viewBox="0 0 1024 1024" version="1.1" xmlns="http://www.w3.org/2000/svg" p-id="1843" xmlns:xlink="http://www.w3.org/1999/xlink" width="200" height="200"><path d="M40.394588 0l330.122661 0 235.802706 419.787682-282.959865 0L40.394588 0zM512.183191 464.062634c-156.332507 0-283.065083 125.34596-283.065083 279.968683 0 154.621784 126.732576 279.968683 283.065083 279.968683s283.066022-125.34596 283.066022-279.968683C795.249214 589.409533 668.516638 464.062634 512.183191 464.062634zM603.809767 895.572671 510.491256 827.176612l-95.016082 65.826686 33.974912-113.032696-89.81815-73.237003 114.313155-1.470226 39.5148-111.081475 36.669231 112.122377 114.233303 4.586355-91.644425 70.761574L603.809767 895.572671zM606.319955 0l377.285457 0L653.482751 419.787682l-141.482751-269.864047L606.319955 0" fill="#272636" p-id="1844"></path></svg>