<?xml version="1.0" standalone="no"?><!DOCTYPE svg PUBLIC "-//W3C//DTD SVG 1.1//EN" "http://www.w3.org/Graphics/SVG/1.1/DTD/svg11.dtd"><svg t="1761914058409" class="icon" viewBox="0 0 1024 1024" version="1.1" xmlns="http://www.w3.org/2000/svg" p-id="8261" xmlns:xlink="http://www.w3.org/1999/xlink" width="200" height="200"><path d="M511.1 295.1c-119.5 0-216.8 97.3-216.8 216.8s97.3 216.8 216.8 216.8 216.8-97.3 216.8-216.8-97.3-216.8-216.8-216.8z m127.2 254h-135c-4.4 0-8.4-2.3-11.4-6-3.7-3.1-6-7-6-11.4v-135c0-9.6 10.8-17.5 24-17.5s24 7.9 24 17.5v104.4h104.4c9.6 0 17.4 10.8 17.4 24s-7.8 24-17.4 24z" p-id="8262"></path><path d="M511.1 63.9c-247.4 0-448 200.6-448 448s200.6 448 448 448 448-200.6 448-448-200.6-448-448-448z m0 740.7c-161.4 0-292.7-131.3-292.7-292.7s131.3-292.7 292.7-292.7 292.7 131.3 292.7 292.7-131.3 292.7-292.7 292.7z" p-id="8263"></path></svg>