<?xml version="1.0" standalone="no"?><!DOCTYPE svg PUBLIC "-//W3C//DTD SVG 1.1//EN" "http://www.w3.org/Graphics/SVG/1.1/DTD/svg11.dtd"><svg t="1761914635490" class="icon" viewBox="0 0 1024 1024" version="1.1" xmlns="http://www.w3.org/2000/svg" p-id="9239" xmlns:xlink="http://www.w3.org/1999/xlink" width="200" height="200"><path d="M1015.6 373.6c-9.4-29.6-34.2-50.8-64.8-55.4L697 273.6l-113.4-228C570.4 18 541.6 0 510.8 0c-31 0-59 17.4-73 45.4L324.4 273.8l-253.2 46c-30.8 4.6-55.8 26-65.2 55.4-9.6 29.2-1.4 62.2 21 84l182.2 168.2-47.8 245.2v0.2c-5.2 30.6 7.6 61.8 32.4 79.4 24.2 17.6 59.2 20.4 85 6.8l232-113.4 230 113.2c9.2 4.8 19.2 7.8 29.4 8.8v0.4h8.4c17 0 33.8-5.6 47.6-15.6 25.2-18 38-49.6 32.6-80.2l-46.2-244.8L995.2 457l0.2-0.2c21.8-21.2 29.8-54 20.2-83.2z" p-id="9240"></path></svg>